<mxfile host="app.diagrams.net" modified="2024-07-23T09:00:18.708Z" agent="Mozilla/5.0 (Windows NT 10.0; Win64; x64) AppleWebKit/537.36 (KHTML, like Gecko) Chrome/126.0.0.0 Safari/537.36" etag="3Cb_tbbdK0nrSs5kx7gT" version="24.7.3" type="device">
  <diagram name="Page-1" id="EKNALXlRuPh_sxip9QSs">
    <mxGraphModel dx="880" dy="434" grid="1" gridSize="10" guides="1" tooltips="1" connect="1" arrows="1" fold="1" page="1" pageScale="1" pageWidth="850" pageHeight="1100" math="0" shadow="0">
      <root>
        <mxCell id="0" />
        <mxCell id="1" parent="0" />
        <mxCell id="3viBn5hCXIHx5tA8XOry-6" style="edgeStyle=orthogonalEdgeStyle;rounded=0;orthogonalLoop=1;jettySize=auto;html=1;entryX=0;entryY=0.25;entryDx=0;entryDy=0;" edge="1" parent="1" source="3viBn5hCXIHx5tA8XOry-1" target="3viBn5hCXIHx5tA8XOry-3">
          <mxGeometry relative="1" as="geometry">
            <Array as="points">
              <mxPoint x="240" y="193" />
            </Array>
          </mxGeometry>
        </mxCell>
        <mxCell id="3viBn5hCXIHx5tA8XOry-1" value="Khách hàng" style="rounded=0;whiteSpace=wrap;html=1;" vertex="1" parent="1">
          <mxGeometry x="90" y="160" width="120" height="60" as="geometry" />
        </mxCell>
        <mxCell id="3viBn5hCXIHx5tA8XOry-2" value="5.1" style="swimlane;fontStyle=0;childLayout=stackLayout;horizontal=1;startSize=20;fillColor=#ffffff;horizontalStack=0;resizeParent=1;resizeParentMax=0;resizeLast=0;collapsible=0;marginBottom=0;swimlaneFillColor=#ffffff;rounded=1;glass=0;arcSize=50;" vertex="1" parent="1">
          <mxGeometry x="350" y="165" width="90" height="50" as="geometry" />
        </mxCell>
        <mxCell id="3viBn5hCXIHx5tA8XOry-3" value="Lập biên bản sự cố" style="text;html=1;align=center;verticalAlign=middle;whiteSpace=wrap;rounded=0;" vertex="1" parent="3viBn5hCXIHx5tA8XOry-2">
          <mxGeometry y="20" width="90" height="30" as="geometry" />
        </mxCell>
        <mxCell id="3viBn5hCXIHx5tA8XOry-9" value="&lt;font style=&quot;font-size: 9px;&quot;&gt;Thông tin sự cố&lt;/font&gt;" style="text;html=1;align=center;verticalAlign=middle;whiteSpace=wrap;rounded=0;" vertex="1" parent="1">
          <mxGeometry x="240" y="165" width="90" height="30" as="geometry" />
        </mxCell>
        <mxCell id="3viBn5hCXIHx5tA8XOry-10" style="edgeStyle=orthogonalEdgeStyle;rounded=0;orthogonalLoop=1;jettySize=auto;html=1;entryX=0.5;entryY=1;entryDx=0;entryDy=0;" edge="1" parent="1" source="3viBn5hCXIHx5tA8XOry-3" target="3viBn5hCXIHx5tA8XOry-1">
          <mxGeometry relative="1" as="geometry">
            <Array as="points">
              <mxPoint x="395" y="240" />
              <mxPoint x="150" y="240" />
            </Array>
          </mxGeometry>
        </mxCell>
        <mxCell id="3viBn5hCXIHx5tA8XOry-11" value="&lt;font style=&quot;font-size: 9px;&quot;&gt;Biên bản sự cố&lt;/font&gt;" style="text;html=1;align=center;verticalAlign=middle;whiteSpace=wrap;rounded=0;" vertex="1" parent="1">
          <mxGeometry x="240" y="210" width="90" height="30" as="geometry" />
        </mxCell>
        <mxCell id="3viBn5hCXIHx5tA8XOry-14" style="edgeStyle=orthogonalEdgeStyle;rounded=0;orthogonalLoop=1;jettySize=auto;html=1;entryX=0.25;entryY=1;entryDx=0;entryDy=0;" edge="1" parent="1" source="3viBn5hCXIHx5tA8XOry-12" target="3viBn5hCXIHx5tA8XOry-1">
          <mxGeometry relative="1" as="geometry" />
        </mxCell>
        <mxCell id="3viBn5hCXIHx5tA8XOry-12" value="5.2" style="swimlane;fontStyle=0;childLayout=stackLayout;horizontal=1;startSize=20;fillColor=#ffffff;horizontalStack=0;resizeParent=1;resizeParentMax=0;resizeLast=0;collapsible=0;marginBottom=0;swimlaneFillColor=#ffffff;rounded=1;glass=0;arcSize=50;" vertex="1" parent="1">
          <mxGeometry x="350" y="270" width="90" height="50" as="geometry" />
        </mxCell>
        <mxCell id="3viBn5hCXIHx5tA8XOry-13" value="Lập hoá đơn bồi thường" style="text;html=1;align=center;verticalAlign=middle;whiteSpace=wrap;rounded=0;" vertex="1" parent="3viBn5hCXIHx5tA8XOry-12">
          <mxGeometry y="20" width="90" height="30" as="geometry" />
        </mxCell>
        <mxCell id="3viBn5hCXIHx5tA8XOry-15" value="&lt;font size=&quot;1&quot;&gt;Hoá đơn bồi thường&lt;/font&gt;" style="text;html=1;align=center;verticalAlign=middle;whiteSpace=wrap;rounded=0;" vertex="1" parent="1">
          <mxGeometry x="210" y="260" width="100" height="30" as="geometry" />
        </mxCell>
        <mxCell id="3viBn5hCXIHx5tA8XOry-35" style="edgeStyle=orthogonalEdgeStyle;rounded=0;orthogonalLoop=1;jettySize=auto;html=1;entryX=0;entryY=0.5;entryDx=0;entryDy=0;" edge="1" parent="1" source="3viBn5hCXIHx5tA8XOry-17" target="3viBn5hCXIHx5tA8XOry-32">
          <mxGeometry relative="1" as="geometry" />
        </mxCell>
        <mxCell id="3viBn5hCXIHx5tA8XOry-17" value="b." style="html=1;dashed=0;whiteSpace=wrap;shape=mxgraph.dfd.dataStoreID;align=left;spacingLeft=3;points=[[0,0],[0.5,0],[1,0],[0,0.5],[1,0.5],[0,1],[0.5,1],[1,1]];" vertex="1" parent="1">
          <mxGeometry x="100" y="350" width="130" height="30" as="geometry" />
        </mxCell>
        <mxCell id="3viBn5hCXIHx5tA8XOry-18" value="Danh sách khách hàng" style="text;html=1;align=center;verticalAlign=middle;whiteSpace=wrap;rounded=0;" vertex="1" parent="1">
          <mxGeometry x="120" y="350" width="90" height="30" as="geometry" />
        </mxCell>
        <mxCell id="3viBn5hCXIHx5tA8XOry-22" value="k." style="html=1;dashed=0;whiteSpace=wrap;shape=mxgraph.dfd.dataStoreID;align=left;spacingLeft=3;points=[[0,0],[0.5,0],[1,0],[0,0.5],[1,0.5],[0,1],[0.5,1],[1,1]];" vertex="1" parent="1">
          <mxGeometry x="500" y="320" width="150" height="30" as="geometry" />
        </mxCell>
        <mxCell id="3viBn5hCXIHx5tA8XOry-23" value="Thông tin tài sản và sinh trắc" style="text;html=1;align=center;verticalAlign=middle;whiteSpace=wrap;rounded=0;" vertex="1" parent="1">
          <mxGeometry x="535" y="320" width="120" height="30" as="geometry" />
        </mxCell>
        <mxCell id="3viBn5hCXIHx5tA8XOry-25" value="f." style="html=1;dashed=0;whiteSpace=wrap;shape=mxgraph.dfd.dataStoreID;align=left;spacingLeft=3;points=[[0,0],[0.5,0],[1,0],[0,0.5],[1,0.5],[0,1],[0.5,1],[1,1]];" vertex="1" parent="1">
          <mxGeometry x="510" y="130" width="150" height="30" as="geometry" />
        </mxCell>
        <mxCell id="3viBn5hCXIHx5tA8XOry-26" value="Danh sách biên bản sự cố" style="text;html=1;align=center;verticalAlign=middle;whiteSpace=wrap;rounded=0;" vertex="1" parent="1">
          <mxGeometry x="550" y="130" width="90" height="30" as="geometry" />
        </mxCell>
        <mxCell id="3viBn5hCXIHx5tA8XOry-28" value="g." style="html=1;dashed=0;whiteSpace=wrap;shape=mxgraph.dfd.dataStoreID;align=left;spacingLeft=3;points=[[0,0],[0.5,0],[1,0],[0,0.5],[1,0.5],[0,1],[0.5,1],[1,1]];" vertex="1" parent="1">
          <mxGeometry x="500" y="210" width="150" height="30" as="geometry" />
        </mxCell>
        <mxCell id="3viBn5hCXIHx5tA8XOry-29" value="Danh sách hoá đơn bồi thường sự cố" style="text;html=1;align=center;verticalAlign=middle;whiteSpace=wrap;rounded=0;" vertex="1" parent="1">
          <mxGeometry x="530" y="210" width="120" height="30" as="geometry" />
        </mxCell>
        <mxCell id="3viBn5hCXIHx5tA8XOry-31" value="5.3" style="swimlane;fontStyle=0;childLayout=stackLayout;horizontal=1;startSize=20;fillColor=#ffffff;horizontalStack=0;resizeParent=1;resizeParentMax=0;resizeLast=0;collapsible=0;marginBottom=0;swimlaneFillColor=#ffffff;rounded=1;glass=0;arcSize=50;" vertex="1" parent="1">
          <mxGeometry x="350" y="360" width="100" height="70" as="geometry" />
        </mxCell>
        <mxCell id="3viBn5hCXIHx5tA8XOry-32" value="Quản lí theo dõi thông tin tài sản và sinh trắc" style="text;html=1;align=center;verticalAlign=middle;whiteSpace=wrap;rounded=0;" vertex="1" parent="3viBn5hCXIHx5tA8XOry-31">
          <mxGeometry y="20" width="100" height="50" as="geometry" />
        </mxCell>
        <mxCell id="3viBn5hCXIHx5tA8XOry-33" style="edgeStyle=orthogonalEdgeStyle;rounded=0;orthogonalLoop=1;jettySize=auto;html=1;entryX=0.5;entryY=1;entryDx=0;entryDy=0;" edge="1" parent="1" source="3viBn5hCXIHx5tA8XOry-13" target="3viBn5hCXIHx5tA8XOry-29">
          <mxGeometry relative="1" as="geometry">
            <Array as="points">
              <mxPoint x="590" y="300" />
            </Array>
          </mxGeometry>
        </mxCell>
        <mxCell id="3viBn5hCXIHx5tA8XOry-36" style="edgeStyle=orthogonalEdgeStyle;rounded=0;orthogonalLoop=1;jettySize=auto;html=1;entryX=0.5;entryY=1;entryDx=0;entryDy=0;" edge="1" parent="1" source="3viBn5hCXIHx5tA8XOry-32" target="3viBn5hCXIHx5tA8XOry-23">
          <mxGeometry relative="1" as="geometry" />
        </mxCell>
        <mxCell id="3viBn5hCXIHx5tA8XOry-37" style="edgeStyle=orthogonalEdgeStyle;rounded=0;orthogonalLoop=1;jettySize=auto;html=1;entryX=0.433;entryY=1.033;entryDx=0;entryDy=0;entryPerimeter=0;" edge="1" parent="1" source="3viBn5hCXIHx5tA8XOry-2" target="3viBn5hCXIHx5tA8XOry-26">
          <mxGeometry relative="1" as="geometry" />
        </mxCell>
        <mxCell id="3viBn5hCXIHx5tA8XOry-38" style="edgeStyle=orthogonalEdgeStyle;rounded=0;orthogonalLoop=1;jettySize=auto;html=1;entryX=0.333;entryY=0;entryDx=0;entryDy=0;entryPerimeter=0;" edge="1" parent="1" source="3viBn5hCXIHx5tA8XOry-1" target="3viBn5hCXIHx5tA8XOry-18">
          <mxGeometry relative="1" as="geometry" />
        </mxCell>
      </root>
    </mxGraphModel>
  </diagram>
</mxfile>
